<svg xmlns="http://www.w3.org/2000/svg" viewBox="0 0 957.1 410.29"><defs><style>.cls-1{fill:#7221da;}.cls-2{fill:#373737;}</style></defs><g id="Layer_2" data-name="Layer 2"><g id="Layer_1-2" data-name="Layer 1"><path class="cls-1" d="M638.59,250.58A159.38,159.38,0,0,1,801.26,91.88c86.8,1.78,159.89,74.27,155.67,166.94C953,345,880.1,413.71,791.25,410.15A159.23,159.23,0,0,1,638.59,250.58Z"/><path class="cls-1" d="M453.92,166.58c0-38.81-.08-77.63,0-116.44.08-30,23.42-51.78,53.28-50C532,1.54,552.36,23.17,552.59,48.56c.13,14.82.16,29.65-.07,44.47-.06,4,1.26,5,5.11,5,13.16-.22,26.32-.1,39.49-.09,24.43,0,43.3,18.44,43.65,42.6.34,23.65-18.81,42.79-43.27,43.06-13.49.15-27,0-40.48,0-2.53,0-4.48,0-4.45,3.55.18,31-.21,62,.47,92.93.4,18,10.82,27.25,28.92,26.85,15.54-.34,29.43,3.24,40.47,14.69,14.26,14.8,18.49,32.3,11.47,51.54-7.24,19.85-22.31,31.05-43.31,32.46-27.1,1.82-53.16-2.72-76.68-17.3-34.58-21.43-53.13-53.1-58.84-92.87-1.62-11.26-1.12-22.6-1.14-33.92Q453.86,214,453.92,166.58Z"/><path class="cls-1" d="M301.11,194.54c0-15.49,0-31,0-46.45,0-17,16.13-26.77,31.05-18.66a6.13,6.13,0,0,0,5.92.23c36.54-14.33,74.85,6.57,82.47,45a61.39,61.39,0,0,1,1,11.41c.1,18,.19,36,0,53.94-.17,16.58-14,27-28.88,22.1A21.16,21.16,0,0,1,378,241.77c-.07-18.48.05-37-.05-55.44,0-7.46-3.23-13.25-10.34-16.19-6.44-2.66-12.47-1.39-17.67,3.12-4.49,3.9-5.64,9.22-5.64,14.91q0,26.22,0,52.44c0,13.24-8.81,22.53-21.34,22.58-12.85.05-21.79-9.24-21.8-22.7Q301.1,217.51,301.11,194.54Z"/><path class="cls-2" d="M278.6,353.44c0-11.66-.05-23.31,0-35,.07-13.55,11.73-20.69,23.76-14.48a4.77,4.77,0,0,0,4.56.11c15.74-6.15,30.7-4.38,44.49,5.26,2.82,2,4.06.52,5.91-.72a46.23,46.23,0,0,1,71.18,28.19,43.59,43.59,0,0,1,1,9.4q.16,21,0,42c0,10.46-7,17.91-16.68,17.94-9.9,0-16.79-7.44-16.8-18.23,0-13.49,0-27,0-40.48,0-5.65-2.48-10-7.7-12.35-4.7-2.12-9.12-1.23-13.06,2-3.16,2.61-4.44,6-4.42,10.12q.14,20.48,0,41c-.07,9.74-6.06,16.85-14.74,17.83-10.36,1.18-18.91-6.33-19-17-.14-13.65,0-27.31,0-41,0-8.27-5-13.93-12.32-14-7.5-.11-12.76,5.56-12.81,14.08-.08,13.33,0,26.65,0,40,0,10.69-7.09,18.19-17,18.08-9.55-.1-16.28-7.6-16.3-18.22Q278.58,370.69,278.6,353.44Z"/><path class="cls-2" d="M126,300.84a51.17,51.17,0,0,1,30.37,9.65c8.7,6.19,11,16,5.63,23.88-5.51,8.15-15.55,9.67-24.58,3.74-12.36-8.12-27.9-2.42-31.33,11.48a19.86,19.86,0,0,0,8,21.05,19.55,19.55,0,0,0,22,.69c3-1.87,5.8-3.88,9.41-4.34a16.68,16.68,0,0,1,17.83,9.91c3.1,7.19,1,15.07-5.33,20.06-21.2,16.69-52.35,14-71.61-6.17-18.44-19.32-19.17-50.66-1.66-71.11A53.23,53.23,0,0,1,126,300.84Z"/><path class="cls-2" d="M28.28,332.84c16,.05,27.95,12.17,27.89,28.22A28.09,28.09,0,0,1,0,360.79C0,345,12.35,332.79,28.28,332.84Z"/><path class="cls-1" d="M143.44,178.51c-10.29-43.51-56.69-66.11-98-47.69-2.41,1.08-4.32,2.12-7.15-.09-6.76-5.28-14.48-5.75-22.06-1.85S5.11,139.41,5.14,148.06c.07,22.65,0,45.3,0,67.95q0,34.47,0,68.95a20.24,20.24,0,0,0,4.92,13.76,22,22,0,0,0,24.56,6.19c8.53-3.07,14-10.89,14.32-20.88.21-6.83.19-13.66,0-20.49-.1-3.45.88-3.85,4-2.76a68.07,68.07,0,0,0,26.52,3.44C122.64,261.74,153.38,220.6,143.44,178.51ZM75.12,220.86A26.25,26.25,0,0,1,49,194.3a26,26,0,0,1,26.28-26.24,26.28,26.28,0,0,1,26.29,26.39A26.62,26.62,0,0,1,75.12,220.86Z"/><path class="cls-1" d="M222.22,125.42c-37.87-1.59-71,27.63-72.54,67.67A70.09,70.09,0,0,0,217,265.53c37.47,1.31,70.8-26.9,72.76-67C291.57,161.73,263.89,127.16,222.22,125.42Zm-2.72,96.46a26.41,26.41,0,1,1,26.61-26.2A26.63,26.63,0,0,1,219.5,221.88Z"/><path class="cls-2" d="M220.16,300.85a53.68,53.68,0,0,0-53.83,53.45c-.11,29.12,24.16,53.49,53.3,53.52,30,0,54.22-24.1,54-53.76A53.47,53.47,0,0,0,220.16,300.85Zm-.06,73.6a20.14,20.14,0,1,1,20-20A20.13,20.13,0,0,1,220.1,374.45Z"/></g></g></svg>